<?xml version="1.0"?><svg xmlns="http://www.w3.org/2000/svg"  viewBox="0 0 50 50" width="50px" height="50px">    <path d="M 13 3 C 7.4886661 3 3 7.4886661 3 13 L 3 37 C 3 42.511334 7.4886661 47 13 47 L 37 47 C 42.511334 47 47 42.511334 47 37 L 47 13 C 47 7.4886661 42.511334 3 37 3 L 13 3 z M 14 5 L 20 5 L 20 22.587891 C 19.072675 22.211025 18.06076 22 17 22 C 15.93924 22 14.927325 22.211025 14 22.587891 L 14 5 z M 22 5 L 27.041016 5 C 27.05093 5.193444 27.048634 5.3899905 27.064453 5.5820312 L 29.058594 5.4179688 C 29.047392 5.2803089 29.049038 5.1386513 29.041016 5 L 34 5 C 34 5.185 34.003672 5.3697344 34.013672 5.5527344 L 36.011719 5.4453125 C 36.003719 5.2983125 36 5.149 36 5 L 37 5 C 41.430666 5 45 8.5693339 45 13 L 45 13.994141 C 44.850052 13.994136 44.699919 13.995241 44.550781 13.988281 L 44.451172 15.986328 C 44.633172 15.996328 44.816 16 45 16 L 45 20.958984 C 44.861446 20.950962 44.719691 20.952608 44.582031 20.941406 L 44.419922 22.935547 C 44.611188 22.951333 44.806995 22.948908 45 22.958984 L 45 35.974609 A 1 1 0 0 0 44.974609 35.974609 A 1 1 0 0 0 43.974609 36.974609 A 1 1 0 0 0 44.935547 37.972656 C 44.554489 41.134684 42.346976 43.719483 39.388672 44.638672 A 1 1 0 0 0 39.421875 44.386719 A 1 1 0 0 0 38.421875 43.386719 A 1 1 0 0 0 37.421875 44.386719 A 1 1 0 0 0 37.609375 44.96875 C 37.407637 44.983869 37.205723 45 37 45 L 22 45 L 22 36.234375 C 23.82647 34.766699 25 32.519061 25 30 C 25 27.480939 23.82647 25.233301 22 23.765625 L 22 21.916016 A 1 1 0 0 0 22.037109 21.917969 A 1 1 0 0 0 23.037109 20.917969 A 1 1 0 0 0 22.037109 19.917969 A 1 1 0 0 0 22 19.919922 L 22 5 z M 12 5.0683594 L 12 13.056641 A 1 1 0 0 0 11.205078 14.035156 A 1 1 0 0 0 12 15.013672 L 12 23.765625 C 10.17353 25.233301 9 27.480939 9 30 C 9 32.519061 10.17353 34.766699 12 36.234375 L 12 44.931641 C 8.045415 44.441222 5 41.091155 5 37 L 5 22.203125 A 1 1 0 0 0 5.6523438 22.447266 A 1 1 0 0 0 6.6523438 21.447266 A 1 1 0 0 0 5.6523438 20.447266 A 1 1 0 0 0 5 20.689453 L 5 13 C 5 12.095877 5.1554398 11.231254 5.4296875 10.421875 A 1 1 0 0 0 5.6523438 10.447266 A 1 1 0 0 0 6.6523438 9.4472656 A 1 1 0 0 0 6.2753906 8.6660156 C 7.5264027 6.7242214 9.5928063 5.366882 12 5.0683594 z M 29.480469 8.03125 L 27.537109 8.5058594 C 27.770109 9.4608594 28.082891 10.407359 28.462891 11.318359 L 30.306641 10.548828 C 29.966641 9.7328281 29.688469 8.88525 29.480469 8.03125 z M 36.525391 8.0390625 L 34.642578 8.7148438 C 35.007578 9.7308438 35.521969 10.686641 36.167969 11.556641 L 37.773438 10.363281 C 37.244437 9.6512812 36.823391 8.8690625 36.525391 8.0390625 z M 8.9296875 10.740234 A 1 1 0 0 0 7.9296875 11.740234 A 1 1 0 0 0 8.9296875 12.740234 A 1 1 0 0 0 9.9296875 11.740234 A 1 1 0 0 0 8.9296875 10.740234 z M 39.636719 12.228516 L 38.443359 13.833984 C 39.313359 14.480984 40.270156 14.993422 41.285156 15.357422 L 41.960938 13.474609 C 41.130937 13.176609 40.348719 12.757516 39.636719 12.228516 z M 31.517578 12.904297 L 29.814453 13.953125 C 30.329453 14.789125 30.915641 15.595703 31.556641 16.345703 L 33.078125 15.046875 C 32.503125 14.374875 31.978578 13.653297 31.517578 12.904297 z M 34.949219 16.919922 L 33.648438 18.439453 C 34.397438 19.080453 35.202062 19.666594 36.039062 20.183594 L 37.089844 18.482422 C 36.339844 18.020422 35.619219 17.493922 34.949219 16.919922 z M 39.443359 19.689453 L 38.673828 21.535156 C 39.582828 21.916156 40.528328 22.227937 41.486328 22.460938 L 41.958984 20.517578 C 41.102984 20.308578 40.256359 20.029453 39.443359 19.689453 z M 25.3125 22.210938 A 1 1 0 0 0 24.3125 23.210938 A 1 1 0 0 0 25.3125 24.210938 A 1 1 0 0 0 26.3125 23.210938 A 1 1 0 0 0 25.3125 22.210938 z M 8.9296875 22.740234 A 1 1 0 0 0 7.9296875 23.740234 A 1 1 0 0 0 8.9296875 24.740234 A 1 1 0 0 0 9.9296875 23.740234 A 1 1 0 0 0 8.9296875 22.740234 z M 28.589844 24.505859 A 1 1 0 0 0 27.589844 25.505859 A 1 1 0 0 0 28.589844 26.505859 A 1 1 0 0 0 29.589844 25.505859 A 1 1 0 0 0 28.589844 24.505859 z M 17 26 L 20 34 L 17 32 L 14 34 L 17 26 z M 31.867188 26.798828 A 1 1 0 0 0 30.867188 27.798828 A 1 1 0 0 0 31.867188 28.798828 A 1 1 0 0 0 32.867188 27.798828 A 1 1 0 0 0 31.867188 26.798828 z M 35.144531 29.09375 A 1 1 0 0 0 34.144531 30.09375 A 1 1 0 0 0 34.244141 30.527344 C 33.676419 30.843299 32.80406 31.179687 31.570312 31.179688 C 29.290312 31.179687 28.410156 30.050781 28.410156 30.050781 C 27.510156 31.370781 27 32.990469 27 34.730469 C 27 39.300469 30.58 43 35 43 C 39.42 43 43 39.300469 43 34.730469 C 43 32.990469 42.489844 31.370781 41.589844 30.050781 C 41.589844 30.050781 40.709688 31.179688 38.429688 31.179688 C 37.357564 31.179688 36.547531 30.919636 35.978516 30.644531 A 1 1 0 0 0 36.144531 30.09375 A 1 1 0 0 0 35.144531 29.09375 z M 25.3125 34.210938 A 1 1 0 0 0 24.3125 35.210938 A 1 1 0 0 0 25.3125 36.210938 A 1 1 0 0 0 26.3125 35.210938 A 1 1 0 0 0 25.3125 34.210938 z M 14 37.412109 C 14.927325 37.788975 15.93924 38 17 38 C 18.06076 38 19.072675 37.788975 20 37.412109 L 20 45 L 14 45 L 14 37.412109 z"/></svg>